<?xml version="1.0" encoding="UTF-8" ?>
<svg xmlns="http://www.w3.org/2000/svg" xmlns:xlink="http://www.w3.org/1999/xlink" version="1.1" id="Layer_1" x="0px" y="0px" viewBox="0 0 24 24" xml:space="preserve">
  <g fill="none" stroke="#303C42" stroke-linecap="round" stroke-linejoin="round" stroke-miterlimit="10">
    <path d="M22.5 14.5h-5a1 1 0 0 1 0-2h4v-7a1 1 0 0 1 2 0v8a1 1 0 0 1-1 1z" />
    <path d="M20.5 14.5v5" />
    <path d="M18.5 19.5h4" />
    <path d="M1.5 14.5h5a1 1 0 0 0 0-2h-4v-7a1 1 0 0 0-2 0v8a1 1 0 0 0 1 1z" />
    <path d="M3.5 14.5v5" />
    <path d="M5.5 19.5h-4" />
    <path d="M12 10.5v9" />
    <path d="M9.5 19.5h5" />
    <path d="M18.5 10.5c-1.626 0-1.626 1-3.253 1s-1.626-1-3.253-1c-1.623 0-1.623 1-3.247 1-1.624 0-1.624-1-3.247-1V9A1.5 1.5 0 0 1 7 7.5h10A1.5 1.5 0 0 1 18.5 9v1.5z" />
  </g>
  <metadata>
    <rdf:RDF xmlns:rdf="http://www.w3.org/1999/02/22-rdf-syntax-ns#" xmlns:rdfs="http://www.w3.org/2000/01/rdf-schema#" xmlns:dc="http://purl.org/dc/elements/1.1/">
      <rdf:Description about="https://iconscout.com/legal#licenses" dc:title="table,two,person,reservation,restaurant" dc:description="table,two,person,reservation,restaurant" dc:publisher="Iconscout" dc:date="2017-08-16" dc:format="image/svg+xml" dc:language="en">
        <dc:creator>
          <rdf:Bag>
            <rdf:li>Those Icons</rdf:li>
          </rdf:Bag>
        </dc:creator>
      </rdf:Description>
    </rdf:RDF>
  </metadata>
</svg>